<svg width="13" height="13" viewBox="0 0 13 13" fill="none" xmlns="http://www.w3.org/2000/svg">
<path d="M11.0004 3.4L2.12539 12.3C1.92539 12.5 1.68772 12.6 1.41239 12.6C1.13706 12.6 0.899724 12.5 0.70039 12.3C0.50039 12.1 0.400391 11.8623 0.400391 11.587C0.400391 11.3117 0.50039 11.0743 0.70039 10.875L9.60039 2H2.00039C1.71706 2 1.47939 1.904 1.28739 1.712C1.09539 1.52 0.999724 1.28267 1.00039 1C1.00039 0.71667 1.09639 0.479004 1.28839 0.287004C1.48039 0.0950036 1.71772 -0.000663206 2.00039 3.4602e-06H12.0004C12.2837 3.4602e-06 12.5214 0.0960036 12.7134 0.288004C12.9054 0.480004 13.0011 0.717337 13.0004 1V11C13.0004 11.2833 12.9044 11.521 12.7124 11.713C12.5204 11.905 12.2831 12.0007 12.0004 12C11.7171 12 11.4794 11.904 11.2874 11.712C11.0954 11.52 10.9997 11.2827 11.0004 11V3.4Z" fill="#DCD7C9"/>
</svg>
