<svg width="266" height="97" viewBox="0 0 266 97" fill="none" xmlns="http://www.w3.org/2000/svg">
<path d="M5.72819 11.728H0.992188L4.44819 3.66399H7.55219L5.72819 11.728ZM12.1922 11.728H7.45619L10.9122 3.66399H14.0162L12.1922 11.728Z" fill="#2C3639"/>
<path d="M21.9382 7.27999V12.88H29.4582V16.432H21.9382V22.352H30.4182V26H17.4582V3.63199H30.4182V7.27999H21.9382Z" fill="#2C3639"/>
<path d="M41.8814 21.872L46.3614 8.27199H51.1294L44.5694 26H39.1294L32.6014 8.27199H37.4014L41.8814 21.872Z" fill="#2C3639"/>
<path d="M70.1257 16.752C70.1257 17.392 70.083 17.968 69.9977 18.48H57.0377C57.1444 19.76 57.5924 20.7627 58.3817 21.488C59.171 22.2133 60.1417 22.576 61.2937 22.576C62.9577 22.576 64.1417 21.8613 64.8457 20.432H69.6777C69.1657 22.1387 68.1844 23.5467 66.7337 24.656C65.283 25.744 63.5017 26.288 61.3897 26.288C59.683 26.288 58.147 25.9147 56.7817 25.168C55.4377 24.4 54.3817 23.3227 53.6137 21.936C52.867 20.5493 52.4937 18.9493 52.4937 17.136C52.4937 15.3013 52.867 13.6907 53.6137 12.304C54.3604 10.9173 55.4057 9.85065 56.7497 9.10399C58.0937 8.35732 59.6404 7.98399 61.3897 7.98399C63.075 7.98399 64.579 8.34665 65.9017 9.07199C67.2457 9.79732 68.2804 10.832 69.0057 12.176C69.7524 13.4987 70.1257 15.024 70.1257 16.752ZM65.4857 15.472C65.4644 14.32 65.0484 13.4027 64.2377 12.72C63.427 12.016 62.435 11.664 61.2617 11.664C60.1524 11.664 59.2137 12.0053 58.4457 12.688C57.699 13.3493 57.2404 14.2773 57.0697 15.472H65.4857Z" fill="#2C3639"/>
<path d="M77.8757 11.024C78.4517 10.0853 79.1984 9.34932 80.1157 8.81599C81.0544 8.28265 82.121 8.01599 83.3157 8.01599V12.72H82.1317C80.7237 12.72 79.657 13.0507 78.9317 13.712C78.2277 14.3733 77.8757 15.5253 77.8757 17.168V26H73.3957V8.27199H77.8757V11.024Z" fill="#2C3639"/>
<path d="M103.293 8.27199L92.3172 34.384H87.5492L91.3892 25.552L84.2852 8.27199H89.3092L93.8852 20.656L98.5252 8.27199H103.293Z" fill="#2C3639"/>
<path d="M110.924 11.952V20.528C110.924 21.1253 111.063 21.5627 111.34 21.84C111.639 22.096 112.13 22.224 112.812 22.224H114.892V26H112.076C108.3 26 106.412 24.1653 106.412 20.496V11.952H104.3V8.27199H106.412V3.88799H110.924V8.27199H114.892V11.952H110.924Z" fill="#2C3639"/>
<path d="M128.098 8.01599C129.442 8.01599 130.637 8.31465 131.682 8.91199C132.728 9.48799 133.538 10.352 134.114 11.504C134.712 12.6347 135.01 14 135.01 15.6V26H130.53V16.208C130.53 14.8 130.178 13.7227 129.474 12.976C128.77 12.208 127.81 11.824 126.594 11.824C125.357 11.824 124.376 12.208 123.65 12.976C122.946 13.7227 122.594 14.8 122.594 16.208V26H118.114V2.31999H122.594V10.48C123.17 9.71199 123.938 9.11465 124.898 8.68799C125.858 8.23999 126.925 8.01599 128.098 8.01599Z" fill="#2C3639"/>
<path d="M141.543 6.15999C140.753 6.15999 140.092 5.91466 139.559 5.42399C139.047 4.91199 138.791 4.28265 138.791 3.53599C138.791 2.78932 139.047 2.17065 139.559 1.67999C140.092 1.16799 140.753 0.911987 141.543 0.911987C142.332 0.911987 142.983 1.16799 143.495 1.67999C144.028 2.17065 144.295 2.78932 144.295 3.53599C144.295 4.28265 144.028 4.91199 143.495 5.42399C142.983 5.91466 142.332 6.15999 141.543 6.15999ZM143.751 8.27199V26H139.271V8.27199H143.751Z" fill="#2C3639"/>
<path d="M158.001 8.01599C160.113 8.01599 161.82 8.68799 163.121 10.032C164.422 11.3547 165.073 13.2107 165.073 15.6V26H160.593V16.208C160.593 14.8 160.241 13.7227 159.537 12.976C158.833 12.208 157.873 11.824 156.657 11.824C155.42 11.824 154.438 12.208 153.713 12.976C153.009 13.7227 152.657 14.8 152.657 16.208V26H148.177V8.27199H152.657V10.48C153.254 9.71199 154.012 9.11465 154.929 8.68799C155.868 8.23999 156.892 8.01599 158.001 8.01599Z" fill="#2C3639"/>
<path d="M176.277 7.98399C177.6 7.98399 178.763 8.25065 179.765 8.78399C180.768 9.29599 181.557 9.96799 182.133 10.8V8.27199H186.645V26.128C186.645 27.7707 186.315 29.232 185.653 30.512C184.992 31.8133 184 32.8373 182.677 33.584C181.355 34.352 179.755 34.736 177.877 34.736C175.36 34.736 173.291 34.1493 171.669 32.976C170.069 31.8027 169.163 30.2027 168.949 28.176H173.397C173.632 28.9867 174.133 29.6267 174.901 30.096C175.691 30.5867 176.64 30.832 177.749 30.832C179.051 30.832 180.107 30.4373 180.917 29.648C181.728 28.88 182.133 27.7067 182.133 26.128V23.376C181.557 24.208 180.757 24.9013 179.733 25.456C178.731 26.0107 177.579 26.288 176.277 26.288C174.784 26.288 173.419 25.904 172.181 25.136C170.944 24.368 169.963 23.2907 169.237 21.904C168.533 20.496 168.181 18.8853 168.181 17.072C168.181 15.28 168.533 13.6907 169.237 12.304C169.963 10.9173 170.933 9.85065 172.149 9.10399C173.387 8.35732 174.763 7.98399 176.277 7.98399ZM182.133 17.136C182.133 16.048 181.92 15.12 181.493 14.352C181.067 13.5627 180.491 12.9653 179.765 12.56C179.04 12.1333 178.261 11.92 177.429 11.92C176.597 11.92 175.829 12.1227 175.125 12.528C174.421 12.9333 173.845 13.5307 173.397 14.32C172.971 15.088 172.757 16.0053 172.757 17.072C172.757 18.1387 172.971 19.0773 173.397 19.888C173.845 20.6773 174.421 21.2853 175.125 21.712C175.851 22.1387 176.619 22.352 177.429 22.352C178.261 22.352 179.04 22.1493 179.765 21.744C180.491 21.3173 181.067 20.72 181.493 19.952C181.92 19.1627 182.133 18.224 182.133 17.136Z" fill="#2C3639"/>
<path d="M223.222 8.27199L218.038 26H213.206L209.974 13.616L206.742 26H201.878L196.662 8.27199H201.206L204.342 21.776L207.734 8.27199H212.47L215.798 21.744L218.934 8.27199H223.222Z" fill="#2C3639"/>
<path d="M242.126 16.752C242.126 17.392 242.083 17.968 241.998 18.48H229.038C229.144 19.76 229.592 20.7627 230.382 21.488C231.171 22.2133 232.142 22.576 233.294 22.576C234.958 22.576 236.142 21.8613 236.846 20.432H241.678C241.166 22.1387 240.184 23.5467 238.734 24.656C237.283 25.744 235.502 26.288 233.39 26.288C231.683 26.288 230.147 25.9147 228.782 25.168C227.438 24.4 226.382 23.3227 225.614 21.936C224.867 20.5493 224.494 18.9493 224.494 17.136C224.494 15.3013 224.867 13.6907 225.614 12.304C226.36 10.9173 227.406 9.85065 228.75 9.10399C230.094 8.35732 231.64 7.98399 233.39 7.98399C235.075 7.98399 236.579 8.34665 237.902 9.07199C239.246 9.79732 240.28 10.832 241.006 12.176C241.752 13.4987 242.126 15.024 242.126 16.752ZM237.486 15.472C237.464 14.32 237.048 13.4027 236.238 12.72C235.427 12.016 234.435 11.664 233.262 11.664C232.152 11.664 231.214 12.0053 230.446 12.688C229.699 13.3493 229.24 14.2773 229.07 15.472H237.486Z" fill="#2C3639"/>
<path d="M27.2822 43.016C29.3942 43.016 31.1009 43.688 32.4022 45.032C33.7035 46.3547 34.3542 48.2107 34.3542 50.6V61H29.8742V51.208C29.8742 49.8 29.5222 48.7227 28.8182 47.976C28.1142 47.208 27.1542 46.824 25.9382 46.824C24.7009 46.824 23.7195 47.208 22.9942 47.976C22.2902 48.7227 21.9382 49.8 21.9382 51.208V61H17.4582V43.272H21.9382V45.48C22.5355 44.712 23.2929 44.1147 24.2102 43.688C25.1489 43.24 26.1729 43.016 27.2822 43.016Z" fill="#2C3639"/>
<path d="M55.0944 51.752C55.0944 52.392 55.0518 52.968 54.9664 53.48H42.0064C42.1131 54.76 42.5611 55.7627 43.3504 56.488C44.1398 57.2133 45.1104 57.576 46.2624 57.576C47.9264 57.576 49.1104 56.8613 49.8144 55.432H54.6464C54.1344 57.1387 53.1531 58.5467 51.7024 59.656C50.2518 60.744 48.4704 61.288 46.3584 61.288C44.6518 61.288 43.1158 60.9147 41.7504 60.168C40.4064 59.4 39.3504 58.3227 38.5824 56.936C37.8358 55.5493 37.4624 53.9493 37.4624 52.136C37.4624 50.3013 37.8358 48.6907 38.5824 47.304C39.3291 45.9173 40.3744 44.8507 41.7184 44.104C43.0624 43.3573 44.6091 42.984 46.3584 42.984C48.0438 42.984 49.5478 43.3467 50.8704 44.072C52.2144 44.7973 53.2491 45.832 53.9744 47.176C54.7211 48.4987 55.0944 50.024 55.0944 51.752ZM50.4544 50.472C50.4331 49.32 50.0171 48.4027 49.2064 47.72C48.3958 47.016 47.4038 46.664 46.2304 46.664C45.1211 46.664 44.1824 47.0053 43.4144 47.688C42.6678 48.3493 42.2091 49.2773 42.0384 50.472H50.4544Z" fill="#2C3639"/>
<path d="M74.8444 51.752C74.8444 52.392 74.8018 52.968 74.7164 53.48H61.7564C61.8631 54.76 62.3111 55.7627 63.1004 56.488C63.8898 57.2133 64.8604 57.576 66.0124 57.576C67.6764 57.576 68.8604 56.8613 69.5644 55.432H74.3964C73.8844 57.1387 72.9031 58.5467 71.4524 59.656C70.0018 60.744 68.2204 61.288 66.1084 61.288C64.4018 61.288 62.8658 60.9147 61.5004 60.168C60.1564 59.4 59.1004 58.3227 58.3324 56.936C57.5858 55.5493 57.2124 53.9493 57.2124 52.136C57.2124 50.3013 57.5858 48.6907 58.3324 47.304C59.0791 45.9173 60.1244 44.8507 61.4684 44.104C62.8124 43.3573 64.3591 42.984 66.1084 42.984C67.7938 42.984 69.2978 43.3467 70.6204 44.072C71.9644 44.7973 72.9991 45.832 73.7244 47.176C74.4711 48.4987 74.8444 50.024 74.8444 51.752ZM70.2044 50.472C70.1831 49.32 69.7671 48.4027 68.9564 47.72C68.1458 47.016 67.1538 46.664 65.9804 46.664C64.8711 46.664 63.9324 47.0053 63.1644 47.688C62.4178 48.3493 61.9591 49.2773 61.7884 50.472H70.2044Z" fill="#2C3639"/>
<path d="M76.9624 52.072C76.9624 50.28 77.3144 48.6907 78.0184 47.304C78.7438 45.9173 79.7251 44.8507 80.9624 44.104C82.1998 43.3573 83.5758 42.984 85.0904 42.984C86.2424 42.984 87.3411 43.24 88.3864 43.752C89.4318 44.2427 90.2638 44.904 90.8824 45.736V37.32H95.4264V61H90.8824V58.376C90.3278 59.2507 89.5491 59.9547 88.5464 60.488C87.5438 61.0213 86.3811 61.288 85.0584 61.288C83.5651 61.288 82.1998 60.904 80.9624 60.136C79.7251 59.368 78.7438 58.2907 78.0184 56.904C77.3144 55.496 76.9624 53.8853 76.9624 52.072ZM90.9144 52.136C90.9144 51.048 90.7011 50.12 90.2744 49.352C89.8478 48.5627 89.2718 47.9653 88.5464 47.56C87.8211 47.1333 87.0424 46.92 86.2104 46.92C85.3784 46.92 84.6104 47.1227 83.9064 47.528C83.2024 47.9333 82.6264 48.5307 82.1784 49.32C81.7518 50.088 81.5384 51.0053 81.5384 52.072C81.5384 53.1387 81.7518 54.0773 82.1784 54.888C82.6264 55.6773 83.2024 56.2853 83.9064 56.712C84.6318 57.1387 85.3998 57.352 86.2104 57.352C87.0424 57.352 87.8211 57.1493 88.5464 56.744C89.2718 56.3173 89.8478 55.72 90.2744 54.952C90.7011 54.1627 90.9144 53.224 90.9144 52.136Z" fill="#2C3639"/>
<path d="M109.699 41.16C108.91 41.16 108.248 40.9147 107.715 40.424C107.203 39.912 106.947 39.2827 106.947 38.536C106.947 37.7893 107.203 37.1707 107.715 36.68C108.248 36.168 108.91 35.912 109.699 35.912C110.488 35.912 111.139 36.168 111.651 36.68C112.184 37.1707 112.451 37.7893 112.451 38.536C112.451 39.2827 112.184 39.912 111.651 40.424C111.139 40.9147 110.488 41.16 109.699 41.16ZM111.907 43.272V61H107.427V43.272H111.907Z" fill="#2C3639"/>
<path d="M123.117 61.288C121.667 61.288 120.365 61.032 119.213 60.52C118.061 59.9867 117.144 59.272 116.461 58.376C115.8 57.48 115.437 56.488 115.373 55.4H119.885C119.971 56.0827 120.301 56.648 120.877 57.096C121.475 57.544 122.211 57.768 123.085 57.768C123.939 57.768 124.6 57.5973 125.069 57.256C125.56 56.9147 125.805 56.4773 125.805 55.944C125.805 55.368 125.507 54.9413 124.909 54.664C124.333 54.3653 123.405 54.0453 122.125 53.704C120.803 53.384 119.715 53.0533 118.861 52.712C118.029 52.3707 117.304 51.848 116.685 51.144C116.088 50.44 115.789 49.4907 115.789 48.296C115.789 47.3147 116.067 46.4187 116.621 45.608C117.197 44.7973 118.008 44.1573 119.053 43.688C120.12 43.2187 121.368 42.984 122.797 42.984C124.909 42.984 126.595 43.5173 127.853 44.584C129.112 45.6293 129.805 47.048 129.933 48.84H125.645C125.581 48.136 125.283 47.5813 124.749 47.176C124.237 46.7493 123.544 46.536 122.669 46.536C121.859 46.536 121.229 46.6853 120.781 46.984C120.355 47.2827 120.141 47.6987 120.141 48.232C120.141 48.8293 120.44 49.288 121.037 49.608C121.635 49.9067 122.563 50.216 123.821 50.536C125.101 50.856 126.157 51.1867 126.989 51.528C127.821 51.8693 128.536 52.4027 129.133 53.128C129.752 53.832 130.072 54.7707 130.093 55.944C130.093 56.968 129.805 57.8853 129.229 58.696C128.675 59.5067 127.864 60.1467 126.797 60.616C125.752 61.064 124.525 61.288 123.117 61.288Z" fill="#2C3639"/>
<path d="M140.244 52.072C140.244 50.28 140.596 48.6907 141.3 47.304C142.025 45.9173 142.996 44.8507 144.212 44.104C145.449 43.3573 146.825 42.984 148.34 42.984C149.662 42.984 150.814 43.2507 151.796 43.784C152.798 44.3173 153.598 44.9893 154.196 45.8V43.272H158.708V61H154.196V58.408C153.62 59.24 152.82 59.9333 151.796 60.488C150.793 61.0213 149.63 61.288 148.308 61.288C146.814 61.288 145.449 60.904 144.212 60.136C142.996 59.368 142.025 58.2907 141.3 56.904C140.596 55.496 140.244 53.8853 140.244 52.072ZM154.196 52.136C154.196 51.048 153.982 50.12 153.556 49.352C153.129 48.5627 152.553 47.9653 151.828 47.56C151.102 47.1333 150.324 46.92 149.492 46.92C148.66 46.92 147.892 47.1227 147.188 47.528C146.484 47.9333 145.908 48.5307 145.46 49.32C145.033 50.088 144.82 51.0053 144.82 52.072C144.82 53.1387 145.033 54.0773 145.46 54.888C145.908 55.6773 146.484 56.2853 147.188 56.712C147.913 57.1387 148.681 57.352 149.492 57.352C150.324 57.352 151.102 57.1493 151.828 56.744C152.553 56.3173 153.129 55.72 153.556 54.952C153.982 54.1627 154.196 53.224 154.196 52.136Z" fill="#2C3639"/>
<path d="M167.563 37.32V61H163.083V37.32H167.563Z" fill="#2C3639"/>
<path d="M176.469 46.024C177.045 45.0853 177.792 44.3493 178.709 43.816C179.648 43.2827 180.715 43.016 181.909 43.016V47.72H180.725C179.317 47.72 178.251 48.0507 177.525 48.712C176.821 49.3733 176.469 50.5253 176.469 52.168V61H171.989V43.272H176.469V46.024Z" fill="#2C3639"/>
<path d="M201.407 51.752C201.407 52.392 201.364 52.968 201.279 53.48H188.319C188.426 54.76 188.874 55.7627 189.663 56.488C190.452 57.2133 191.423 57.576 192.575 57.576C194.239 57.576 195.423 56.8613 196.127 55.432H200.959C200.447 57.1387 199.466 58.5467 198.015 59.656C196.564 60.744 194.783 61.288 192.671 61.288C190.964 61.288 189.428 60.9147 188.063 60.168C186.719 59.4 185.663 58.3227 184.895 56.936C184.148 55.5493 183.775 53.9493 183.775 52.136C183.775 50.3013 184.148 48.6907 184.895 47.304C185.642 45.9173 186.687 44.8507 188.031 44.104C189.375 43.3573 190.922 42.984 192.671 42.984C194.356 42.984 195.86 43.3467 197.183 44.072C198.527 44.7973 199.562 45.832 200.287 47.176C201.034 48.4987 201.407 50.024 201.407 51.752ZM196.767 50.472C196.746 49.32 196.33 48.4027 195.519 47.72C194.708 47.016 193.716 46.664 192.543 46.664C191.434 46.664 190.495 47.0053 189.727 47.688C188.98 48.3493 188.522 49.2773 188.351 50.472H196.767Z" fill="#2C3639"/>
<path d="M203.525 52.072C203.525 50.28 203.877 48.6907 204.581 47.304C205.306 45.9173 206.277 44.8507 207.493 44.104C208.73 43.3573 210.106 42.984 211.621 42.984C212.944 42.984 214.096 43.2507 215.077 43.784C216.08 44.3173 216.88 44.9893 217.477 45.8V43.272H221.989V61H217.477V58.408C216.901 59.24 216.101 59.9333 215.077 60.488C214.074 61.0213 212.912 61.288 211.589 61.288C210.096 61.288 208.73 60.904 207.493 60.136C206.277 59.368 205.306 58.2907 204.581 56.904C203.877 55.496 203.525 53.8853 203.525 52.072ZM217.477 52.136C217.477 51.048 217.264 50.12 216.837 49.352C216.41 48.5627 215.834 47.9653 215.109 47.56C214.384 47.1333 213.605 46.92 212.773 46.92C211.941 46.92 211.173 47.1227 210.469 47.528C209.765 47.9333 209.189 48.5307 208.741 49.32C208.314 50.088 208.101 51.0053 208.101 52.072C208.101 53.1387 208.314 54.0773 208.741 54.888C209.189 55.6773 209.765 56.2853 210.469 56.712C211.194 57.1387 211.962 57.352 212.773 57.352C213.605 57.352 214.384 57.1493 215.109 56.744C215.834 56.3173 216.41 55.72 216.837 54.952C217.264 54.1627 217.477 53.224 217.477 52.136Z" fill="#2C3639"/>
<path d="M225.212 52.072C225.212 50.28 225.564 48.6907 226.268 47.304C226.994 45.9173 227.975 44.8507 229.212 44.104C230.45 43.3573 231.826 42.984 233.34 42.984C234.492 42.984 235.591 43.24 236.636 43.752C237.682 44.2427 238.514 44.904 239.132 45.736V37.32H243.676V61H239.132V58.376C238.578 59.2507 237.799 59.9547 236.796 60.488C235.794 61.0213 234.631 61.288 233.308 61.288C231.815 61.288 230.45 60.904 229.212 60.136C227.975 59.368 226.994 58.2907 226.268 56.904C225.564 55.496 225.212 53.8853 225.212 52.072ZM239.164 52.136C239.164 51.048 238.951 50.12 238.524 49.352C238.098 48.5627 237.522 47.9653 236.796 47.56C236.071 47.1333 235.292 46.92 234.46 46.92C233.628 46.92 232.86 47.1227 232.156 47.528C231.452 47.9333 230.876 48.5307 230.428 49.32C230.002 50.088 229.788 51.0053 229.788 52.072C229.788 53.1387 230.002 54.0773 230.428 54.888C230.876 55.6773 231.452 56.2853 232.156 56.712C232.882 57.1387 233.65 57.352 234.46 57.352C235.292 57.352 236.071 57.1493 236.796 56.744C237.522 56.3173 238.098 55.72 238.524 54.952C238.951 54.1627 239.164 53.224 239.164 52.136Z" fill="#2C3639"/>
<path d="M265.012 43.272L254.036 69.384H249.268L253.108 60.552L246.004 43.272H251.028L255.604 55.656L260.244 43.272H265.012Z" fill="#2C3639"/>
<path d="M27.4422 78.016C28.7862 78.016 29.9809 78.3147 31.0262 78.912C32.0715 79.488 32.8822 80.352 33.4582 81.504C34.0555 82.6347 34.3542 84 34.3542 85.6V96H29.8742V86.208C29.8742 84.8 29.5222 83.7227 28.8182 82.976C28.1142 82.208 27.1542 81.824 25.9382 81.824C24.7009 81.824 23.7195 82.208 22.9942 82.976C22.2902 83.7227 21.9382 84.8 21.9382 86.208V96H17.4582V72.32H21.9382V80.48C22.5142 79.712 23.2822 79.1147 24.2422 78.688C25.2022 78.24 26.2689 78.016 27.4422 78.016Z" fill="#2C3639"/>
<path d="M55.0944 86.752C55.0944 87.392 55.0518 87.968 54.9664 88.48H42.0064C42.1131 89.76 42.5611 90.7627 43.3504 91.488C44.1398 92.2133 45.1104 92.576 46.2624 92.576C47.9264 92.576 49.1104 91.8613 49.8144 90.432H54.6464C54.1344 92.1387 53.1531 93.5467 51.7024 94.656C50.2518 95.744 48.4704 96.288 46.3584 96.288C44.6518 96.288 43.1158 95.9147 41.7504 95.168C40.4064 94.4 39.3504 93.3227 38.5824 91.936C37.8358 90.5493 37.4624 88.9493 37.4624 87.136C37.4624 85.3013 37.8358 83.6907 38.5824 82.304C39.3291 80.9173 40.3744 79.8507 41.7184 79.104C43.0624 78.3573 44.6091 77.984 46.3584 77.984C48.0438 77.984 49.5478 78.3467 50.8704 79.072C52.2144 79.7973 53.2491 80.832 53.9744 82.176C54.7211 83.4987 55.0944 85.024 55.0944 86.752ZM50.4544 85.472C50.4331 84.32 50.0171 83.4027 49.2064 82.72C48.3958 82.016 47.4038 81.664 46.2304 81.664C45.1211 81.664 44.1824 82.0053 43.4144 82.688C42.6678 83.3493 42.2091 84.2773 42.0384 85.472H50.4544Z" fill="#2C3639"/>
<path d="M62.8444 81.024C63.4204 80.0853 64.1671 79.3493 65.0844 78.816C66.0231 78.2827 67.0898 78.016 68.2844 78.016V82.72H67.1004C65.6924 82.72 64.6258 83.0507 63.9004 83.712C63.1964 84.3733 62.8444 85.5253 62.8444 87.168V96H58.3644V78.272H62.8444V81.024Z" fill="#2C3639"/>
<path d="M87.7819 86.752C87.7819 87.392 87.7393 87.968 87.6539 88.48H74.6939C74.8006 89.76 75.2486 90.7627 76.0379 91.488C76.8273 92.2133 77.7979 92.576 78.9499 92.576C80.6139 92.576 81.7979 91.8613 82.5019 90.432H87.3339C86.8219 92.1387 85.8406 93.5467 84.3899 94.656C82.9393 95.744 81.1579 96.288 79.0459 96.288C77.3393 96.288 75.8033 95.9147 74.4379 95.168C73.0939 94.4 72.0379 93.3227 71.2699 91.936C70.5233 90.5493 70.1499 88.9493 70.1499 87.136C70.1499 85.3013 70.5233 83.6907 71.2699 82.304C72.0166 80.9173 73.0619 79.8507 74.4059 79.104C75.7499 78.3573 77.2966 77.984 79.0459 77.984C80.7313 77.984 82.2353 78.3467 83.5579 79.072C84.9019 79.7973 85.9366 80.832 86.6619 82.176C87.4086 83.4987 87.7819 85.024 87.7819 86.752ZM83.1419 85.472C83.1206 84.32 82.7046 83.4027 81.8939 82.72C81.0833 82.016 80.0913 81.664 78.9179 81.664C77.8086 81.664 76.8699 82.0053 76.1019 82.688C75.3553 83.3493 74.8966 84.2773 74.7259 85.472H83.1419Z" fill="#2C3639"/>
<path d="M91.9479 73.664H96.6519L93.1959 81.728H90.1239L91.9479 73.664ZM98.4119 73.664H103.116L99.6599 81.728H96.5879L98.4119 73.664Z" fill="#2C3639"/>
</svg>
