<svg width="24" height="24" viewBox="0 0 24 24" fill="none" xmlns="http://www.w3.org/2000/svg">
<path d="M21.9402 13.11L20.8902 9.89C20.8902 9.86 20.8802 9.83 20.8702 9.8L18.7602 3.32C18.7011 3.1546 18.5928 3.01128 18.4497 2.90937C18.3067 2.80745 18.1358 2.75183 17.9602 2.75C17.6002 2.75 17.2802 3 17.1702 3.33L15.1702 9.5H8.8402L6.8302 3.33C6.77436 3.16368 6.66849 3.01869 6.52707 2.91486C6.38565 2.81103 6.2156 2.75345 6.0402 2.75C5.6702 2.75 5.3502 3 5.2402 3.33L3.1302 9.82V9.83L2.0602 13.11C1.9002 13.61 2.0702 14.15 2.5002 14.45L11.7202 21.16C11.8902 21.28 12.1102 21.28 12.2802 21.15L21.5002 14.45C21.9302 14.15 22.1002 13.61 21.9402 13.11ZM8.1502 10.45L10.7202 18.36L4.5502 10.45M13.2802 18.37L15.7502 10.78L15.8502 10.45H19.4602L13.8702 17.61M17.9702 3.94L19.7802 9.5H16.1602M14.8602 10.45L13.0702 15.96L12.0002 19.24L9.1402 10.45M6.0302 3.94L7.8402 9.5H4.2302M3.0502 13.69C2.9602 13.62 2.9202 13.5 2.9602 13.4L3.7502 10.97L9.5702 18.42M20.9502 13.69L14.4402 18.42L14.4602 18.39L20.2502 10.97L21.0402 13.4C21.0802 13.5 21.0402 13.62 20.9502 13.69Z" fill="white"/>
</svg>
