<svg width="24" height="24" viewBox="0 0 24 24" fill="none" xmlns="http://www.w3.org/2000/svg">
<g clip-path="url(#clip0_701_615)">
<path d="M20.92 6C20.15 6.35 19.32 6.58 18.46 6.69C19.34 6.16 20.02 5.32 20.34 4.31C19.51 4.81 18.59 5.16 17.62 5.36C16.83 4.5 15.72 4 14.46 4C12.11 4 10.19 5.92 10.19 8.29C10.19 8.63 10.23 8.96 10.3 9.27C6.74 9.09 3.57 7.38 1.46 4.79C1.09 5.42 0.88 6.16 0.88 6.94C0.88 8.43 1.63 9.75 2.79 10.5C2.08 10.5 1.42 10.3 0.84 10V10.03C0.84 12.11 2.32 13.85 4.28 14.24C3.65073 14.4122 2.99009 14.4362 2.35 14.31C2.62161 15.1625 3.15354 15.9084 3.87102 16.4429C4.5885 16.9775 5.45545 17.2737 6.35 17.29C4.83363 18.4904 2.954 19.1393 1.02 19.13C0.68 19.13 0.34 19.11 0 19.07C1.9 20.29 4.16 21 6.58 21C14.46 21 18.79 14.46 18.79 8.79C18.79 8.6 18.79 8.42 18.78 8.23C19.62 7.63 20.34 6.87 20.92 6Z" fill="white"/>
</g>
<defs>
<clipPath id="clip0_701_615">
<rect width="24" height="24" fill="white"/>
</clipPath>
</defs>
</svg>
